<svg xmlns="http://www.w3.org/2000/svg" xmlns:xlink="http://www.w3.org/1999/xlink" viewBox="0 0 276 352.03"><defs><style>.cls-1{fill:url(#radial-gradient);}.cls-2{fill:url(#radial-gradient-2);}</style><radialGradient id="radial-gradient" cx="131.25" cy="151.88" r="130.43" gradientUnits="userSpaceOnUse"><stop offset="0.13" stop-color="#f7ea4d"/><stop offset="0.47" stop-color="#f7e84c"/><stop offset="0.6" stop-color="#f7e147"/><stop offset="0.69" stop-color="#f7d63e"/><stop offset="0.76" stop-color="#f7c533"/><stop offset="0.78" stop-color="#f7bd2d"/></radialGradient><radialGradient id="radial-gradient-2" cx="138" cy="331.25" r="98.68" xlink:href="#radial-gradient"/></defs><title>Asset 2</title><g id="Layer_2" data-name="Layer 2"><g id="Layer_1-2" data-name="Layer 1"><path class="cls-1" d="M150,157c0,2.66-20.53,55.23-21.72,58-1.65,3.85-3.49,7.72-5.6,11.63a122.15,122.15,0,0,1-12.89,19.62,79.34,79.34,0,0,1-14,13.41A51.61,51.61,0,0,1,65,269.89a37.16,37.16,0,0,1-14.73-3,34.07,34.07,0,0,1-12.24-8.8,43,43,0,0,1-8.37-14.54,60.35,60.35,0,0,1-3.11-20.24A95.23,95.23,0,0,1,27.8,208a87,87,0,0,1,3.67-14.07,85.42,85.42,0,0,1,5.93-13,112.9,112.9,0,0,1,8.19-12.38l.28-.28c-1.74-1.74-3.3-3.39-4.66-4.9a28.26,28.26,0,0,1-3.44-4.66,21.78,21.78,0,0,1-2.07-5.08,25.45,25.45,0,0,1-.75-6.31,47.45,47.45,0,0,1,.28-5.08,30.82,30.82,0,0,1,1-5.37,32,32,0,0,1,1.93-5.51,36,36,0,0,1,3-5.41,20.45,20.45,0,0,1,6-6,27.87,27.87,0,0,1,7.53-3.34A49.62,49.62,0,0,1,63.38,115q4.52-.42,9.32-.57c3.11,0,6.26-.09,9.46-.19a76.11,76.11,0,0,0,9.36-.85,45.5,45.5,0,0,0,8.8-2.12A25.94,25.94,0,0,0,108,107l1,.85c-2.16,6.21-4.1,11.48-5.84,15.81a116.5,116.5,0,0,1-4.94,10.92,31.16,31.16,0,0,1-2.49,4,30.26,30.26,0,0,1-3.58,4,47.72,47.72,0,0,1-4.8,4.57c-2.16,1.83-4.66,3.91-7.53,6.26s-6,5-9.36,7.86-6.78,5.84-10.26,9a145.6,145.6,0,0,0-12.66,12.85,77.49,77.49,0,0,0-8.38,11.81,47.49,47.49,0,0,0-4.71,11A41.17,41.17,0,0,0,33,216.43a32,32,0,0,0,2.59,12.85,31.37,31.37,0,0,0,7.06,10.07A32.62,32.62,0,0,0,53,246a33.52,33.52,0,0,0,12.71,2.4A49.77,49.77,0,0,0,78,246.78a63.13,63.13,0,0,0,12.75-5C118.7,227.19,150,157,150,157Zm-46.06,44.37c-.53,1.65-1.26,3.57-2.25,5.89s-2,4.49-3.17,6.61a48.84,48.84,0,0,1-3.11,5.42c-.93,1.52-1.65,2.25-2.12,2.25a11.58,11.58,0,0,1-4-1.39A52.56,52.56,0,0,1,83,216.66a46.94,46.94,0,0,1-6.61-5,20.21,20.21,0,0,1-4.76-6,8.4,8.4,0,0,1,.46-1.79c.33-.93.73-2.05,1.26-3.38s1.19-2.71,1.85-4.23,1.32-3,2-4.5,1.39-2.71,2.05-3.84a21.49,21.49,0,0,1,1.79-2.45,77.9,77.9,0,0,0,6.15,5.62c2,1.65,4.1,3.18,6.08,4.57A62.44,62.44,0,0,0,99,199.14a34.45,34.45,0,0,0,5,2v.2ZM115.33,24c-16.17,25.38-13.62,52.12,2.22,79.84,21,37.27,23.19,67.24,9.31,90.93,20.74-33.35,23.83-66.34,7.1-98.92C119.91,73,112.21,49.23,115.33,24Zm62.6,279.75c18.36-46.47-43.63-47.8-43.08-87.66-1.08-8.93,5.91-29.1,18.79-58.58,1.07,17.23,11.34,32.28,23.17,45.45l-2.28-16.73,6.34-17.49,24.33,30.42c1.71-11.54-5.51-20.58-17.28-31.24-9.57-9.11-7.29-22.23,2.63-40.84-3.05,11.81,2,21.86,13,30.42-7.43-48.15-41.9-60-52.11-85.35-6.31-10-6-28.42,13.75-72.17-11.12,69.3,102.55,70.62,61.91,200.1,5.35-44.49-2.33-85.21-40.55-118.51-14.76-13.34-28.4-28.33-30.72-53.83-2.7,18.68,6.21,33.75,18.37,47.82,34,32.23,41,60.88,34.92,87.81,5,13.18,4.18,25.1-1.62,36L198,217.44l-12-15.34c1.33,12.28-3.53,18.6-7.67,29.32-20.18-20.52-31.67-38-32.62-51.77C129,219.85,170.54,229.93,184,252.87c9.75,17.61,5.54,34.45-6.05,50.89ZM48.89,165a74.23,74.23,0,0,1,6.54-7.76C58,154.59,60.84,151.82,64,149s6.64-5.79,10.4-8.8,7.72-6.07,12-9.17l-.28-.71H78.54A165.72,165.72,0,0,0,58,131.39c-5.6.75-9.79,1.93-12.71,3.58a14.74,14.74,0,0,0-3.72,3,4.29,4.29,0,0,0-1.08,2.68A10.05,10.05,0,0,0,43.19,147a53.43,53.43,0,0,0,7.34,7.2,41.88,41.88,0,0,1-2.07,10.59l.42.28Z"/><path class="cls-2" d="M4.75,337.93l13.32-23.77.73-1.4.74-2h4.65a13.58,13.58,0,0,0,.09,1.81,13.87,13.87,0,0,0,.33,1.54L30.2,337.6q.23,1.07.42,1.72a13.86,13.86,0,0,0,.56,1.54q.37.88,1.77,3.49H24.8l.28-1.4v-2l-.19-1.21-1.45-6.37H12.73l-3.21,5.94a11.5,11.5,0,0,0-1.08,2.38,10,10,0,0,0-.29,2.66H0q1.77-1.86,2.7-3.07.23-.33.88-1.4,1.12-1.86,1.16-2Zm9.63-8.47h8.38l-2.23-12.17-6.15,12.17ZM35.73,340,39,316.67a28.82,28.82,0,0,0,.28-3.44,6,6,0,0,0-.14-1.49l-.28-.93h6.84a11.93,11.93,0,0,0-1.21,2.47,10.27,10.27,0,0,0-.3,1.4q-.16,1-.35,2L40.62,340l-.14,2,0,1.16.56,1.21h-7a7.27,7.27,0,0,0,1.12-2q0-.14.28-1.3.09-.56.23-1.12Zm24.61-3a14.46,14.46,0,0,0,3.07,2.91,5.67,5.67,0,0,0,3.07.81,5.51,5.51,0,0,0,3.93-1.42,4.9,4.9,0,0,0,1.51-3.75,4.67,4.67,0,0,0-.79-2.61,8.72,8.72,0,0,0-2.42-2.33L66.44,329,64,327q-1.77-1.49-1.77-5.44a10.09,10.09,0,0,1,3.56-7.77,12.49,12.49,0,0,1,8.68-3.21,13.38,13.38,0,0,1,2.77.21,15.17,15.17,0,0,1,2.82,1.14l-.65,5.86a13.1,13.1,0,0,0-3-2.54,5.63,5.63,0,0,0-2.81-.72,5.54,5.54,0,0,0-4,1.63,5.36,5.36,0,0,0-1.68,4,4.3,4.3,0,0,0,.84,2.65,14.8,14.8,0,0,0,3.12,2.75l2.51,1.77,2,1.72q1.63,1.49,1.63,5a8.94,8.94,0,0,1-2.23,6.12,12.33,12.33,0,0,1-4.58,3.47,14.65,14.65,0,0,1-5.42.93h-.51q-.84,0-1.54,0a10.29,10.29,0,0,1-1.54-.23,14.67,14.67,0,0,1-2.75-1.12l.88-6.19Zm22.29,3,2.14-14.75,0-1.4,0-.84a7.27,7.27,0,0,0-.47-1.77h6.89l-1.12,2.23-.47,1.77L87.52,340l-.09,1.72a5.25,5.25,0,0,0,.09,1.16l.42,1.49H81.05a8.71,8.71,0,0,0,1.12-2,16.63,16.63,0,0,0,.47-2.33ZM89,311.87a2.57,2.57,0,0,1,1.93.86,2.91,2.91,0,0,1,.81,2.07,3,3,0,0,1-1,2.19,3.29,3.29,0,0,1-2.28.88,2.68,2.68,0,0,1-2-.84,2.79,2.79,0,0,1-.84-2,2.93,2.93,0,0,1,1-2.19,3.26,3.26,0,0,1,2.33-.93ZM94.27,340l2.07-14.75.12-1.16a6,6,0,0,0-.09-1.2l-.43-1.73h5.86l-.64,4.18a14.66,14.66,0,0,1,1.92-2.27,8.46,8.46,0,0,1,2.24-1.28,6.57,6.57,0,0,1,2.29-.63h1.17l-.89,2.56-.6,2.65a4.7,4.7,0,0,0-2.62-1.16,3.58,3.58,0,0,0-2.64,1,4.88,4.88,0,0,0-1.33,2.81l-1.54,11L99,341.88A4.26,4.26,0,0,0,99.1,343l.47,1.35H92.68q.37-.65.6-1.09a9.9,9.9,0,0,0,.47-1l.52-2.23Zm20.56,4.79a7.06,7.06,0,0,1-7.54-7.58,15.21,15.21,0,0,1,4.65-11.52q4.65-4.44,12.24-4.44h5.58l-1.1,2.23a13,13,0,0,0-.47,1.91L126,340.63v1.26a8.26,8.26,0,0,0,.47,2.47h-5.08a5.59,5.59,0,0,1-.5-1.67V342l.19-1.16a10.48,10.48,0,0,0-1.68,1.67l-1,1.4a9.72,9.72,0,0,1-2,.7l-1.63.19Zm8.6-20.33-1.36-.28-1.14-.09a7.24,7.24,0,0,0-6,3.37,13.82,13.82,0,0,0-2.46,8.35,5.59,5.59,0,0,0,1.22,3.82,4.11,4.11,0,0,0,3.25,1.4q4.06,0,4.75-4.62l1.76-11.94Zm6.61,25.5a15.36,15.36,0,0,0,2.37-6.84l2.41-17.84.1-1.47v-1a5,5,0,0,0-.47-1.54h6.89a10.9,10.9,0,0,0-1.68,4l-2.3,17a11.75,11.75,0,0,1-.51,2.61,14.09,14.09,0,0,1-.81,2.44,7.39,7.39,0,0,1-1.51,2.23,33.39,33.39,0,0,1-2.87,2.54h-3.34l1.72-2.09Zm9.12-38.11a2.52,2.52,0,0,1,1.88.86,3,3,0,0,1-.14,4.23,3.22,3.22,0,0,1-2.3.91,2.94,2.94,0,0,1-2-.84,3.1,3.1,0,0,1-.79-2.14,2.78,2.78,0,0,1,1-2.12,3.38,3.38,0,0,1,2.35-.91Zm48.16,6.51a22,22,0,0,0-5-3.77,11.15,11.15,0,0,0-4.91-1,12.64,12.64,0,0,0-9.89,4.86A17.26,17.26,0,0,0,163.31,330a11.57,11.57,0,0,0,2.86,8.14,9.83,9.83,0,0,0,7.61,3.12,15.88,15.88,0,0,0,2.79-.19,16.91,16.91,0,0,0,3.35-.88l1.21-8.61.09-1a8.36,8.36,0,0,0-.14-1.44,11,11,0,0,0-.51-1.81h7.86l-1.33,2.33a6.18,6.18,0,0,0-.57,1.95l-.81,5.68-.14,1.4,0,1.36v.79a5.76,5.76,0,0,0,.23,1.3,55.8,55.8,0,0,1-6.89,2q-1.12.19-2.68.33t-3.23.14q-7.3,0-11.45-3.79T157.4,330.3a18.69,18.69,0,0,1,6.1-14,21.46,21.46,0,0,1,19.05-5.4,46.52,46.52,0,0,1,5.51,1.84l-.74,5.58ZM191.75,340l2.07-14.75.12-1.16a6,6,0,0,0-.09-1.2l-.43-1.73h5.86l-.64,4.18a14.66,14.66,0,0,1,1.92-2.27,8.46,8.46,0,0,1,2.24-1.28,6.57,6.57,0,0,1,2.29-.63h1.17l-.89,2.56-.6,2.65a4.7,4.7,0,0,0-2.62-1.16,3.58,3.58,0,0,0-2.64,1,4.88,4.88,0,0,0-1.33,2.81l-1.54,11-.14,1.86a4.26,4.26,0,0,0,.09,1.12l.47,1.35h-6.89q.37-.65.6-1.09a9.91,9.91,0,0,0,.47-1l.52-2.23Zm26.7-19a8.89,8.89,0,0,1,6.86,2.75,10.61,10.61,0,0,1,2.54,7.49A13.1,13.1,0,0,1,224,340.7a12.52,12.52,0,0,1-9.29,3.93,9.24,9.24,0,0,1-7.1-2.79,10.44,10.44,0,0,1-2.6-7.4v-1.16a13.51,13.51,0,0,1,4.37-8.82,12.94,12.94,0,0,1,9.07-3.51ZM210,333.14a9.08,9.08,0,0,0,1.91,6,6.08,6.08,0,0,0,4.93,2.33q2.7,0,3.72-1.49a13.49,13.49,0,0,0,1.54-3.77,16.44,16.44,0,0,0,.56-4,8.87,8.87,0,0,0-1.84-5.68,5.71,5.71,0,0,0-4.68-2.33,6.72,6.72,0,0,0-2.81.58,3.93,3.93,0,0,0-1.88,1.67,11.37,11.37,0,0,0-1,3,17.79,17.79,0,0,0-.42,3.72Zm27,11.45a7.58,7.58,0,0,1-4.42-1.26,4,4,0,0,1-1.67-3.31,14.94,14.94,0,0,1,.09-1.54c.07-.59.12-1.09.16-1.49l1.74-11.76L233,324v-.56a3.79,3.79,0,0,0-.09-.77,8.77,8.77,0,0,0-.51-1.42h6.93a18,18,0,0,0-1.12,2.23,10.2,10.2,0,0,0-.4,1.77l-1.87,12.56v1.5a2,2,0,0,0,.93,1.74,5.14,5.14,0,0,0,2.61.61,5.23,5.23,0,0,0,3.12-1.13,4.63,4.63,0,0,0,1-1.17,6.67,6.67,0,0,0,.51-1.74l1.72-12.38.1-1.4-.05-.84a7.26,7.26,0,0,0-.47-1.77h6.93l-1.21,2.33a7.33,7.33,0,0,0-.42,1.67l-2,14.75-.19,1.86a7.74,7.74,0,0,0,.56,2.51h-5.91l.51-3.44L242,342.58l-1.12,1.26-2.14.6a9.25,9.25,0,0,1-1.77.14Zm17.17,3,3.12-22.38.09-1.35a8,8,0,0,0-.56-2.65h5.85l-.42,3.44a14.74,14.74,0,0,1,3.57-3,7.37,7.37,0,0,1,3.47-.77,5.75,5.75,0,0,1,4.92,2.47A11.1,11.1,0,0,1,276,330a17.14,17.14,0,0,1-3.23,10.24q-3.23,4.51-7.37,4.51-2,0-5.63-2.42l-.81,5.26-.13,2.19a5,5,0,0,0,.09,1.09,5.81,5.81,0,0,0,.47,1.14h-6.93a10.17,10.17,0,0,0,1.07-1.74,10,10,0,0,0,.37-1.33q.19-.84.28-1.35Zm7.68-20.67-1.73,12.42a1.6,1.6,0,0,0,.38.79l.65.66.65.37.85.28.89.14q2.9,0,5.12-3.14a12.67,12.67,0,0,0,2.22-7.51,8.62,8.62,0,0,0-1.15-4.72,3.52,3.52,0,0,0-3.11-1.79,6.51,6.51,0,0,0-3.32,1.16,5,5,0,0,0-1.45,1.34Z"/></g></g></svg>